<svg width="219" height="219" viewBox="0 0 219 219" fill="none" xmlns="http://www.w3.org/2000/svg">
<g clip-path="url(#clip0_1_112)">
<path d="M116.898 187.962C116.908 187.952 116.908 187.932 116.918 187.922C116.938 187.891 116.951 187.858 116.958 187.822C116.968 187.792 116.978 187.752 116.988 187.722C116.996 187.689 117 187.656 116.998 187.622C116.998 187.602 117.008 187.592 117.008 187.572C117.008 187.552 116.998 187.542 116.998 187.522C116.998 187.502 116.988 187.452 116.988 187.422C116.988 187.392 116.968 187.352 116.958 187.322C116.947 187.288 116.934 187.254 116.918 187.222C116.908 187.212 116.908 187.192 116.898 187.182L105.682 167.757H128.104C128.226 167.753 128.346 167.723 128.454 167.667C128.484 167.647 128.504 167.627 128.534 167.607C128.615 167.556 128.683 167.488 128.734 167.407C128.744 167.387 128.764 167.377 128.784 167.357L140.14 147.692C140.15 147.682 140.15 147.662 140.16 147.652C140.179 147.622 140.193 147.588 140.2 147.552C140.21 147.522 140.22 147.482 140.23 147.452C140.238 147.42 140.242 147.386 140.24 147.352C140.24 147.332 140.25 147.322 140.25 147.302C140.25 147.282 140.24 147.272 140.24 147.252C140.24 147.232 140.23 147.182 140.23 147.152C140.23 147.123 140.21 147.083 140.2 147.053C140.189 147.018 140.176 146.985 140.16 146.953C140.15 146.943 140.15 146.923 140.14 146.913L128.784 127.248C128.767 127.222 128.746 127.199 128.724 127.178C128.693 127.133 128.656 127.092 128.614 127.058C128.572 127.025 128.529 126.995 128.484 126.968C128.444 126.942 128.4 126.922 128.354 126.908C128.303 126.888 128.249 126.878 128.194 126.878C128.164 126.878 128.134 126.858 128.104 126.858H105.682L116.898 107.433C116.908 107.423 116.908 107.403 116.918 107.393C116.938 107.362 116.951 107.328 116.958 107.293C116.968 107.263 116.978 107.223 116.988 107.193C116.996 107.16 117 107.126 116.998 107.093C116.998 107.073 117.008 107.063 117.008 107.043C117.008 107.023 116.998 107.013 116.998 106.993C116.998 106.973 116.988 106.923 116.988 106.893C116.988 106.863 116.968 106.823 116.958 106.793C116.947 106.759 116.934 106.725 116.918 106.693C116.908 106.683 116.908 106.663 116.898 106.653L105.552 86.9879C105.535 86.9625 105.515 86.9391 105.492 86.9179C105.462 86.8756 105.429 86.8355 105.392 86.798C105.351 86.7657 105.307 86.7356 105.262 86.708C105.222 86.6821 105.178 86.6619 105.132 86.648C105.081 86.6284 105.027 86.6183 104.972 86.618C104.942 86.618 104.912 86.598 104.882 86.598H82.1805C82.1605 86.598 82.1505 86.608 82.1305 86.608C82.1105 86.608 82.0605 86.618 82.0306 86.618L81.9206 86.648C81.8889 86.6571 81.8585 86.6705 81.8306 86.688C81.8188 86.696 81.8047 86.6995 81.7907 86.698L81.7606 86.728C81.7322 86.7455 81.7055 86.7656 81.6807 86.788C81.6516 86.8121 81.6247 86.8388 81.6007 86.868C81.5807 86.8979 81.5607 86.9179 81.5407 86.9479C81.5284 86.9593 81.5182 86.9729 81.5107 86.9879L70.2947 106.413L59.0787 86.9879C59.0612 86.9625 59.0411 86.9391 59.0187 86.9179C58.9848 86.8755 58.948 86.8354 58.9087 86.798C58.8711 86.7679 58.831 86.7411 58.7888 86.718C58.7484 86.6921 58.7047 86.6719 58.6588 86.658C58.608 86.6375 58.5536 86.6274 58.4988 86.628C58.4688 86.628 58.4389 86.608 58.4089 86.608H35.7069C35.687 86.608 35.6769 86.618 35.6569 86.618C35.6369 86.618 35.587 86.628 35.557 86.628L35.447 86.658C35.4153 86.6671 35.3849 86.6805 35.357 86.698C35.3452 86.7059 35.3312 86.7095 35.3171 86.708C35.3057 86.7203 35.2921 86.7305 35.277 86.738C35.2486 86.7555 35.2219 86.7756 35.1971 86.798C35.168 86.8221 35.1411 86.8488 35.1171 86.878C35.0971 86.9079 35.0771 86.9279 35.0571 86.9579C35.0448 86.9693 35.0346 86.9829 35.0271 86.9979L23.6812 106.663C23.6667 106.691 23.6566 106.722 23.6511 106.753C23.63 106.801 23.6132 106.851 23.6011 106.903C23.5878 107.002 23.5878 107.103 23.6011 107.203C23.6132 107.254 23.63 107.304 23.6511 107.353C23.6566 107.384 23.6667 107.414 23.6812 107.443L34.8972 126.868H12.4752C12.4552 126.868 12.4451 126.878 12.4251 126.878C12.4051 126.878 12.3552 126.888 12.3252 126.888L12.2152 126.918C12.1835 126.927 12.1532 126.94 12.1252 126.958C12.1152 126.968 12.0953 126.968 12.0853 126.978L12.0553 127.008C12.0268 127.025 12.0001 127.045 11.9753 127.068C11.9462 127.092 11.9194 127.119 11.8953 127.148C11.8753 127.178 11.8554 127.198 11.8354 127.228C11.823 127.239 11.8128 127.253 11.8053 127.268L0.449369 146.933C0.43493 146.961 0.424792 146.991 0.419351 147.023C0.398219 147.071 0.381442 147.121 0.369319 147.172C0.355979 147.272 0.355979 147.373 0.369319 147.472C0.381442 147.524 0.398219 147.574 0.419351 147.622C0.424792 147.654 0.43493 147.684 0.449369 147.712L11.8053 167.377L11.8354 167.407C11.8555 167.44 11.8789 167.47 11.9053 167.497C11.9453 167.537 11.9853 167.567 12.0252 167.607C12.0552 167.627 12.0653 167.657 12.0953 167.667C12.107 167.675 12.1211 167.679 12.1352 167.677C12.2437 167.733 12.3632 167.763 12.485 167.767H34.9072L23.7012 187.192C23.6867 187.221 23.6766 187.251 23.6712 187.282C23.65 187.331 23.6332 187.381 23.6211 187.432C23.6078 187.532 23.6078 187.633 23.6211 187.732C23.6332 187.783 23.65 187.834 23.6712 187.882C23.6766 187.913 23.6867 187.944 23.7012 187.972L35.0471 207.637L35.0772 207.667C35.0973 207.699 35.1207 207.729 35.1471 207.757C35.1871 207.797 35.2271 207.827 35.267 207.867C35.297 207.887 35.3071 207.917 35.3371 207.927C35.3488 207.935 35.3629 207.938 35.377 207.937C35.4855 207.992 35.605 208.023 35.7268 208.027H58.4289C58.5507 208.023 58.6702 207.992 58.7788 207.937C58.8087 207.917 58.8287 207.897 58.8587 207.877C58.9395 207.826 59.0079 207.758 59.0587 207.677C59.0687 207.657 59.0886 207.647 59.1086 207.627L70.3247 188.202L81.5407 207.627L81.5708 207.657C81.5909 207.689 81.6143 207.719 81.6407 207.747C81.6807 207.787 81.7206 207.817 81.7606 207.857C81.7906 207.877 81.8006 207.907 81.8306 207.917C81.8423 207.925 81.8565 207.928 81.8706 207.927C81.9791 207.982 82.0986 208.013 82.2204 208.017H104.923C105.044 208.013 105.164 207.982 105.272 207.927C105.302 207.907 105.322 207.887 105.352 207.867C105.433 207.816 105.501 207.748 105.552 207.667C105.562 207.647 105.582 207.637 105.602 207.617L116.898 187.962ZM104.413 206.447H83.52L93.9663 188.352H114.859L104.413 206.447ZM57.9291 206.447H37.0364L59.3785 167.757H80.2712L57.9291 206.447ZM13.7946 166.178L24.2409 148.082H68.9152L58.4688 166.178H13.7946ZM12.4351 129.207L22.8814 147.302L12.4351 165.398L1.98874 147.302L12.4351 129.207ZM25.2305 107.033L35.6769 88.9374L58.019 127.628L47.5728 145.723L25.2305 107.033ZM82.1705 88.9474L92.6168 107.043L70.2847 145.733L59.8383 127.638L82.1705 88.9474ZM104.413 88.1576L114.859 106.253H93.9663L83.52 88.1576H104.413ZM127.664 128.427L138.111 146.523H93.4366L82.9902 128.427H127.664ZM81.6207 129.207L91.6071 146.513H71.6242L81.6207 129.207ZM68.9152 146.513H48.9323L58.9187 129.207L68.9152 146.513ZM70.2747 148.872L80.2612 166.178H60.2782L70.2747 148.872ZM71.6342 148.092H92.5168L114.849 186.782H93.9563L71.6342 148.092ZM94.3362 148.092H138.101L127.654 166.188H104.773L94.3362 148.092ZM82.9902 126.848L93.9763 107.823H114.869L103.883 126.848H82.9902ZM58.9187 126.068L37.0364 88.1576H57.9291L69.375 107.973L58.9187 126.068ZM46.2032 146.513H24.2309L13.7846 128.417H35.7569L46.2032 146.513ZM57.5592 167.757L35.6769 205.668L25.2305 187.572L36.6666 167.757H57.5592ZM81.6207 168.537L92.6068 187.562L82.1605 205.657L71.1744 186.622L81.6207 168.537Z" fill="white"/>
</g>
<g clip-path="url(#clip1_1_112)">
<path d="M201.138 81.8121L217.589 65.3608H165.838L217.742 13.4569L206.105 1.82007L154.21 53.7239V1.97305L137.75 18.4324V81.8121H201.138Z" stroke="#707070" stroke-width="0.999901"/>
</g>
<defs>
<clipPath id="clip0_1_112">
<rect width="139.891" height="121.438" fill="white" transform="translate(0.359375 86.5938)"/>
</clipPath>
<clipPath id="clip1_1_112">
<rect width="81.5469" height="81.5469" fill="white" transform="translate(137.25 0.765625)"/>
</clipPath>
</defs>
</svg>
